<?xml version="1.0" standalone="no"?><!DOCTYPE svg PUBLIC "-//W3C//DTD SVG 1.1//EN" "http://www.w3.org/Graphics/SVG/1.1/DTD/svg11.dtd"><svg class="icon" width="200px" height="200.00px" viewBox="0 0 1024 1024" version="1.1" xmlns="http://www.w3.org/2000/svg"><path fill="#333333" d="M870.4 1024H153.6a51.2 51.2 0 0 1-51.2-51.2V51.2a51.2 51.2 0 0 1 51.2-51.2h512a51.2 51.2 0 0 1 36.1984 15.0016l204.8 204.8A51.2 51.2 0 0 1 921.6 256v716.8a51.2 51.2 0 0 1-51.2 51.2zM204.8 921.6h614.4V277.2224L644.4032 102.4H204.8v819.2z m548.1984-599.3984l-153.6-153.6A51.2 51.2 0 0 0 512 204.8v204.8h204.8a51.2 51.2 0 0 0 36.1984-87.3984z"  /></svg>