<?xml version="1.0" encoding="utf-8"?>
<!-- Generator: Adobe Illustrator 23.0.0, SVG Export Plug-In . SVG Version: 6.00 Build 0)  -->
<svg version="1.1" id="图层_1" xmlns="http://www.w3.org/2000/svg" xmlns:xlink="http://www.w3.org/1999/xlink" x="0px" y="0px"
	 viewBox="0 0 162 150" style="enable-background:new 0 0 162 150;" xml:space="preserve">
<style type="text/css">
	.st0{fill:#333333;}
</style>
<path class="st0" d="M157,107.6c0,0-0.7-1.4-1.6-3l-21.9-43.8c-0.8-1.7-3.1-3-4.9-3l-18.2,0c-1.9,0-3.4,1.5-3.4,3.4v5.8
	c0,1.9,1.5,3.4,3.4,3.4l5.8,0c1.9,0,4.1,1.4,4.9,3l15.5,31.4c0.8,1.7,0,3-1.9,3l-24.7,0c-1.9,0-3.4,1.5-3.4,3.4V129
	c0,1.9-1.5,3.4-3.4,3.4l-42.8,0c-1.9,0-3.4-1.5-3.4-3.4v-17.8c0-1.9-1.5-3.4-3.4-3.4l-25.2,0c-1.9,0-2.7-1.4-1.8-3l16.2-31.5
	c0.9-1.7,3.1-3,5-3l5.6,0c1.9,0,3.4-1.5,3.4-3.4v-5.7c0-1.9-1.5-3.4-3.4-3.4l-18.1,0c-1.9,0-4.1,1.4-4.9,3l-22,43.8
	c-0.8,1.7-1.5,3-1.5,3c0,0,0,1.5,0,3.4v30.9c0,1.9,1.5,3.4,3.4,3.4h143.2c1.9,0,3.4-1.5,3.4-3.4V111C157,109.1,157,107.6,157,107.6z
	 M50.9,42.6h18.7V95h25V42.6h19.7c1.9,0,2.4-1.1,1.1-2.5l-31-34.9c-1.2-1.4-3.3-1.4-4.5,0L49.7,40C48.5,41.4,49,42.6,50.9,42.6z"/>
</svg>
