<?xml version="1.0" standalone="no"?><!DOCTYPE svg PUBLIC "-//W3C//DTD SVG 1.1//EN" "http://www.w3.org/Graphics/SVG/1.1/DTD/svg11.dtd"><svg class="icon" width="200px" height="200.00px" viewBox="0 0 1024 1024" version="1.1" xmlns="http://www.w3.org/2000/svg"><path fill="#333333" d="M741.293764 527.347516M895.794308 703.986185c-0.120755 0-3.722929-7.00554-8.003582-15.566503l-112.241509-224.461766c-4.281676-8.561986-15.616246-15.564456-25.188615-15.561386l-93.023089 0.030699c-9.57237 0.00307-17.405053 7.837487-17.405053 17.410497l0 29.574513c0 9.571987 7.83166 17.409474 17.405053 17.416637l29.574672 0.019443c9.57237 0.007163 20.878286 7.031123 25.124145 15.610505l79.554845 160.755966c4.244835 8.579382-0.112568 15.598225-9.685961 15.598225L655.550752 704.813015c-9.57237 0-17.405053 7.831347-17.405053 17.404357l0 91.05258c0 9.571987-7.83166 17.404357-17.405053 17.404357L401.767317 830.674309c-9.57237 0-17.405053-7.831347-17.405053-17.404357l0-91.05258c0-9.571987-7.83166-17.404357-17.405053-17.404357L238.042341 704.813015c-9.57237 0-13.814135-6.960515-9.425008-15.467242l83.198977-161.273758c4.389127-8.506727 15.811705-15.462126 25.384074-15.455986l28.808187 0.018419c9.57237 0.007163 17.405053-7.82009 17.405053-17.392077l0-29.317664c0-9.571987-7.83166-17.401287-17.405053-17.398217l-92.596354 0.030699c-9.57237 0.00307-20.921266 7.004517-25.220339 15.557293L135.393668 688.580341c-4.298049 8.552776-7.713975 15.551153-7.591174 15.551153 0.123825 0 0.224113 7.831347 0.224113 17.404357l0 158.054443c0 9.571987 7.83166 17.404357 17.405053 17.404357l733.178638 0c9.57237 0 17.405053-7.831347 17.405053-17.404357L896.01535 721.389519C896.014327 711.817532 895.916086 703.986185 895.794308 703.986185zM352.516789 371.13195l95.516981 0 0 268.105688 127.918132 0 0-268.105688 100.632683 0c9.57237 0 12.210553-5.861486 5.86172-13.025639L523.92811 179.239909c-6.348833-7.164152-16.668244-7.102754-22.930093 0.137123L346.498497 357.969189C340.235625 365.209066 342.943396 371.13195 352.516789 371.13195z" /></svg>